<svg xmlns:dc="http://purl.org/dc/elements/1.1/" xmlns:cc="http://creativecommons.org/ns#" xmlns:rdf="http://www.w3.org/1999/02/22-rdf-syntax-ns#" xmlns:svg="http://www.w3.org/2000/svg" xmlns="http://www.w3.org/2000/svg" xmlns:xlink="http://www.w3.org/1999/xlink" id="svg272163" viewBox="0 0 1024 768" height="200px" width="500px" version="1.1">
  <metadata id="metadata272169">
    <rdf:rdf>
      <cc:work rdf:about="">
        <dc:format>image/svg+xml</dc:format>
        <dc:type rdf:resource="http://purl.org/dc/dcmitype/StillImage"></dc:type>
      </cc:work>
    </rdf:rdf>
  </metadata>
  <defs id="defs272167"></defs>
  <linearGradient spreadMethod="pad" y2="30%" x2="-10%" y1="120%" x1="30%" id="3d_gradient2-logo-0be5e51c-b2df-4e34-971e-a3ddb28ae7a8">
    <stop id="stop272144" stop-opacity="1" stop-color="#ffffff" offset="0%"></stop>
    <stop id="stop272146" stop-opacity="1" stop-color="#000000" offset="100%"></stop>
  </linearGradient>
  <linearGradient gradientTransform="rotate(-30)" spreadMethod="pad" y2="30%" x2="-10%" y1="120%" x1="30%" id="3d_gradient3-logo-0be5e51c-b2df-4e34-971e-a3ddb28ae7a8">
    <stop id="stop272149" stop-opacity="1" stop-color="#ffffff" offset="0%"></stop>
    <stop id="stop272151" stop-opacity="1" stop-color="#cccccc" offset="50%"></stop>
    <stop id="stop272153" stop-opacity="1" stop-color="#000000" offset="100%"></stop>
  </linearGradient>
  <g id="logo-group">
    <image xlink:href="" id="container" x="272" y="144" width="480" height="480" style="display: none;" transform="translate(0 0)"></image>
    <g id="logo-center" transform="translate(-1.1368683772161603e-13 0)">
      <image xlink:href="" id="icon_container" style="display: none;" x="0" y="0"></image>
      <g id="slogan" style="font-style:normal;font-weight:300;font-size:32px;line-height:1;font-family:'Fira Sans Condensed';font-variant-ligatures:none;text-align:center;text-anchor:middle" transform="translate(0 0)"></g>
      <g id="title" style="font-style:normal;font-weight:normal;font-size:72px;line-height:1;font-family:'Brandmark Sans 28';font-variant-ligatures:normal;text-align:center;text-anchor:middle" transform="translate(0 0)">
        <g id="path272172" aria-label="A" transform="translate(0 306.46648) translate(215.69126455000003 54.536) scale(0.91) translate(-260.50063 50.4)"> <polygon class="c1" points="126.98309,124.52972 107.96387,74.09351 107.07361,74.09351 92.69977,74.09351 91.80945,74.09351 73.01691,124.52972 88.28107,124.52972 99.92975,93.26648 111.71893,124.52972 " transform="translate(187.48372 -124.49351)" stroke-width="0" stroke-linejoin="miter" stroke-miterlimit="2" fill="#ff0000" stroke="#ff0000"></polygon> <linearGradient id="314eb5ef-ccc2-480d-920f-40e4f5ea07fa" gradientUnits="userSpaceOnUse" x1="99.69487" y1="74.29882" x2="80.55542" y2="123.91029"> <stop offset="0.22" style="stop-color:#231F20;stop-opacity:0"></stop> <stop offset="0.47363" style="stop-color:#1E1A1B;stop-opacity:0.13006"></stop> <stop offset="0.78476" style="stop-color:#0F0D0D;stop-opacity:0.28962"></stop> <stop offset="1" style="stop-color:#000000;stop-opacity:0.4"></stop> </linearGradient> <polygon class="highlight" fill="url(#314eb5ef-ccc2-480d-920f-40e4f5ea07fa)" points="107.07359,74.09354 91.80946,74.09354 73.01694,124.52972 88.28106,124.52972 " transform="translate(187.48372 -124.49351)" stroke-width="0" stroke-linejoin="miter" stroke-miterlimit="2" opacity="1"></polygon> <linearGradient id="d8124d02-ac90-47fd-aad6-a67009513c42" gradientUnits="userSpaceOnUse" x1="99.69487" y1="74.29882" x2="80.55542" y2="123.91029"> <stop offset="0" style="stop-color:#FFFFFF;stop-opacity:0.4"></stop> <stop offset="0.78" style="stop-color:#FFFFFF;stop-opacity:0"></stop> </linearGradient> <polygon class="highlight" fill="url(#d8124d02-ac90-47fd-aad6-a67009513c42)" points="107.07359,74.09354 91.80946,74.09354 73.01694,124.52972 88.28106,124.52972 " transform="translate(187.48372 -124.49351)" stroke-width="0" stroke-linejoin="miter" stroke-miterlimit="2" opacity="1"></polygon> <linearGradient id="b4673821-5dc9-472e-83f7-6c8cbeb4da24" gradientUnits="userSpaceOnUse" x1="118.91997" y1="121.8189" x2="100.46027" y2="76.05422"> <stop offset="0" style="stop-color:#231F20;stop-opacity:0"></stop> <stop offset="0.32516" style="stop-color:#1E1A1B;stop-opacity:0.13006"></stop> <stop offset="0.72405" style="stop-color:#0F0D0D;stop-opacity:0.28962"></stop> <stop offset="1" style="stop-color:#000000;stop-opacity:0.4"></stop> </linearGradient> <polygon class="highlight" fill="url(#b4673821-5dc9-472e-83f7-6c8cbeb4da24)" points="126.98309,124.52972 107.96387,74.09351 107.07361,74.09351 99.92975,93.26648 111.71893,124.52972 " transform="translate(187.48372 -124.49351)" stroke-width="0" stroke-linejoin="miter" stroke-miterlimit="2" opacity="1"></polygon> </g>
        <g id="path272174" aria-label="C" transform="translate(0 306.46648) translate(279.74763874999996 54.536) scale(0.91) translate(-315.89225 50.4)"> <polygon class="c1" points="120.52081,87.36542 120.52081,74.09314 94.07935,74.09332 94.07935,74.09363 79.47919,87.3656 79.47919,111.43201 94.07928,124.52936 94.07928,124.70477 120.52075,124.70459 120.52075,111.43231 94.07971,111.4325 94.07971,87.36554 " transform="translate(236.41306 -124.49313)" stroke-width="0" stroke-linejoin="miter" stroke-miterlimit="2" fill="#ff0000" stroke="#ff0000"></polygon> <linearGradient id="fd71b3dd-b88b-400e-9e9c-45d66693d14b" gradientUnits="userSpaceOnUse" x1="94.07928" y1="99.39895" x2="120.52081" y2="99.39895"> <stop offset="0" style="stop-color:#000000;stop-opacity:0.4"></stop> <stop offset="0.27595" style="stop-color:#0F0D0D;stop-opacity:0.28962"></stop> <stop offset="0.67484" style="stop-color:#1E1A1B;stop-opacity:0.13006"></stop> <stop offset="1" style="stop-color:#231F20;stop-opacity:0"></stop> </linearGradient> <path class="highlight" fill="url(#fd71b3dd-b88b-400e-9e9c-45d66693d14b)" d="M94.07934,87.36559V74.09331l26.44147-0.00018V87.3654L94.07934,87.36559z M120.52074,124.7046 l0.00001-13.27228l-26.44147,0.00018l-0.00001,13.27227L120.52074,124.7046z" transform="translate(236.41306 -124.49313)" stroke-width="0" stroke-linejoin="miter" stroke-miterlimit="2" opacity="1"></path> <linearGradient id="eaed1651-57e9-4d86-b9f3-23eb0f5afe55" gradientUnits="userSpaceOnUse" x1="86.77944" y1="79.32394" x2="86.77944" y2="120.0817"> <stop offset="0.22346" style="stop-color:#231F20;stop-opacity:0"></stop> <stop offset="0.47596" style="stop-color:#1E1A1B;stop-opacity:0.09755"></stop> <stop offset="0.78586" style="stop-color:#0F0D0D;stop-opacity:0.21727"></stop> <stop offset="1" style="stop-color:#000000;stop-opacity:0.3"></stop> </linearGradient> <polygon class="highlight" fill="url(#eaed1651-57e9-4d86-b9f3-23eb0f5afe55)" points="79.47919,111.43201 94.07969,124.52972 94.07969,74.09335 79.47919,87.3656 " transform="translate(236.41306 -124.49313)" stroke-width="0" stroke-linejoin="miter" stroke-miterlimit="2" opacity="1"></polygon> <linearGradient id="6bea72ed-6e78-47cf-8d6c-9d3685d8b37b" gradientUnits="userSpaceOnUse" x1="86.77944" y1="79.32394" x2="86.77944" y2="120.0817"> <stop offset="0" style="stop-color:#FFFFFF;stop-opacity:0.5"></stop> <stop offset="0.01202" style="stop-color:#FFFFFF;stop-opacity:0.49309"></stop> <stop offset="0.86929" style="stop-color:#FFFFFF;stop-opacity:0"></stop> </linearGradient> <polygon class="highlight" fill="url(#6bea72ed-6e78-47cf-8d6c-9d3685d8b37b)" points="79.47919,111.43201 94.07969,124.52972 94.07969,74.09335 79.47919,87.3656 " transform="translate(236.41306 -124.49313)" stroke-width="0" stroke-linejoin="miter" stroke-miterlimit="2" opacity="1"></polygon> </g>
        <g id="path272176" aria-label="T" transform="translate(0 306.46648) translate(333.9238062499999 54.536) scale(0.91) translate(-360.4265 50.4)"> <polygon class="c1" points="121.78027,74.09302 92.69922,74.0932 92.69922,74.09277 78.21973,74.09296 78.21973,87.36523 92.69922,87.36505 92.69922,87.36548 92.7002,87.36548 92.7002,124.5296 107.30078,124.5296 107.30078,87.36536 121.78027,87.3653 " transform="translate(282.20688 -124.49277)" stroke-width="0" stroke-linejoin="miter" stroke-miterlimit="2" fill="#ff0000" stroke="#ff0000"></polygon> <linearGradient id="7c5a3912-d970-4dfa-9235-95396172d251" gradientUnits="userSpaceOnUse" x1="98.75742" y1="80.72904" x2="79.02769" y2="80.72904"> <stop offset="0.25563" style="stop-color:#000000;stop-opacity:0.4"></stop> <stop offset="0.46104" style="stop-color:#0F0D0D;stop-opacity:0.28962"></stop> <stop offset="0.75796" style="stop-color:#1E1A1B;stop-opacity:0.13006"></stop> <stop offset="1" style="stop-color:#231F20;stop-opacity:0"></stop> </linearGradient> <polygon class="highlight" fill="url(#7c5a3912-d970-4dfa-9235-95396172d251)" points="78.21962,87.36527 78.21963,74.09299 92.69942,74.09282 92.69942,87.36509 " transform="translate(282.20688 -124.49277)" stroke-width="0" stroke-linejoin="miter" stroke-miterlimit="2" opacity="1"></polygon> <linearGradient id="67d6e478-05ba-4116-b4b8-e4aaa7ae2b0c" gradientUnits="userSpaceOnUse" x1="100.00058" y1="76.36192" x2="100.00058" y2="124.5535"> <stop offset="0" style="stop-color:#FFFFFF;stop-opacity:0.5"></stop> <stop offset="0.01383" style="stop-color:#FFFFFF;stop-opacity:0.49309"></stop> <stop offset="1" style="stop-color:#FFFFFF;stop-opacity:0"></stop> </linearGradient> <polygon class="highlight" fill="url(#67d6e478-05ba-4116-b4b8-e4aaa7ae2b0c)" points="92.70033,124.52959 107.30083,124.52959 107.30083,87.3651 92.70033,74.09324 " transform="translate(282.20688 -124.49277)" stroke-width="0" stroke-linejoin="miter" stroke-miterlimit="2" opacity="1"></polygon> <linearGradient id="4542ce7c-696c-4c1d-abd7-a8ca981b174a" gradientUnits="userSpaceOnUse" x1="98.22302" y1="88.5871" x2="108.27877" y2="79.82423"> <stop offset="0.25563" style="stop-color:#000000;stop-opacity:0.4"></stop> <stop offset="0.46104" style="stop-color:#0F0D0D;stop-opacity:0.28962"></stop> <stop offset="0.75796" style="stop-color:#1E1A1B;stop-opacity:0.13006"></stop> <stop offset="1" style="stop-color:#231F20;stop-opacity:0"></stop> </linearGradient> <polygon class="highlight" fill="url(#4542ce7c-696c-4c1d-abd7-a8ca981b174a)" points="121.78027,74.09302 92.7002,74.0932 107.30127,87.36536 121.78027,87.3653 " transform="translate(282.20688 -124.49277)" stroke-width="0" stroke-linejoin="miter" stroke-miterlimit="2" opacity="1"></polygon> </g>
        <g id="path272178" aria-label="I" transform="translate(0 306.46648) translate(391.92470375 54.536) scale(0.91) translate(-409.16375 50.4)"> <polygon class="c1" points="92.68457,74.11133 92.68457,88.72443 92.68457,91.32794 92.68457,124.52972 107.28516,124.52972 107.28516,91.32739 107.28516,88.72552 107.28516,74.11133 " transform="translate(316.4792 -124.49351)" stroke-width="0" stroke-linejoin="miter" stroke-miterlimit="2" fill="#ff0000" stroke="#ff0000"></polygon> <linearGradient id="8977e555-cb21-4ff1-bd6d-2ada05c7fa62" gradientUnits="userSpaceOnUse" x1="99.9849" y1="88.29665" x2="99.9849" y2="123.32087"> <stop offset="0" style="stop-color:#000000;stop-opacity:0.4"></stop> <stop offset="0.27595" style="stop-color:#0F0D0D;stop-opacity:0.28962"></stop> <stop offset="0.67484" style="stop-color:#1E1A1B;stop-opacity:0.13006"></stop> <stop offset="1" style="stop-color:#231F20;stop-opacity:0"></stop> </linearGradient> <rect x="92.68465" y="88.72499" class="highlight" fill="url(#8977e555-cb21-4ff1-bd6d-2ada05c7fa62)" width="14.6005" height="35.80472" transform="translate(316.4792 -124.49351)" stroke-width="0" stroke-linejoin="miter" stroke-miterlimit="2" opacity="1"></rect> <linearGradient id="2b005655-a766-488d-b5f7-01e1216c7aa7" gradientUnits="userSpaceOnUse" x1="96.08685" y1="85.06548" x2="104.20254" y2="77.45702"> <stop offset="0" style="stop-color:#000000;stop-opacity:0.4"></stop> <stop offset="0.27595" style="stop-color:#0F0D0D;stop-opacity:0.28962"></stop> <stop offset="0.67484" style="stop-color:#1E1A1B;stop-opacity:0.13006"></stop> <stop offset="1" style="stop-color:#231F20;stop-opacity:0"></stop> </linearGradient> <polygon class="highlight" fill="url(#2b005655-a766-488d-b5f7-01e1216c7aa7)" points="107.28516,74.11133 92.70239,74.11133 107.28516,88.69415 " transform="translate(316.4792 -124.49351)" stroke-width="0" stroke-linejoin="miter" stroke-miterlimit="2" opacity="1"></polygon> <linearGradient id="77fe8854-4e6a-4d78-a3b5-4d4e6474fad1" gradientUnits="userSpaceOnUse" x1="100.20536" y1="81.20361" x2="92.47973" y2="88.92923"> <stop offset="0" style="stop-color:#FFFFFF;stop-opacity:0.5"></stop> <stop offset="0.01383" style="stop-color:#FFFFFF;stop-opacity:0.49309"></stop> <stop offset="1" style="stop-color:#FFFFFF;stop-opacity:0"></stop> </linearGradient> <polygon class="highlight" fill="url(#77fe8854-4e6a-4d78-a3b5-4d4e6474fad1)" points="107.31545,88.72442 92.68455,74.09351 92.68456,88.72442 " transform="translate(316.4792 -124.49351)" stroke-width="0" stroke-linejoin="miter" stroke-miterlimit="2" opacity="1"></polygon> </g>
        <g id="path272180" aria-label="V" transform="translate(0 306.46648) translate(422.9549029500001 54.536) scale(0.91) translate(-428.26287 50.4)"> <polygon class="c1" points="111.71875,74.09344 100.07031,105.35663 88.28125,74.09338 73.01709,74.09338 92.03613,124.52954 92.92627,124.52954 107.30029,124.52954 108.19043,124.52954 126.98291,74.09344 " transform="translate(355.24578 -124.49338)" stroke-width="0" stroke-linejoin="miter" stroke-miterlimit="2" fill="#ff0000" stroke="#ff0000"></polygon> <linearGradient id="058c008a-c446-4988-ba2e-1907de1ae527" gradientUnits="userSpaceOnUse" x1="120.19638" y1="75.20424" x2="100.25746" y2="122.13738"> <stop offset="0.30163" style="stop-color:#231F20;stop-opacity:0"></stop> <stop offset="0.53054" style="stop-color:#1E1B1C;stop-opacity:0.09833"></stop> <stop offset="0.78932" style="stop-color:#110F0F;stop-opacity:0.2095"></stop> <stop offset="1" style="stop-color:#000000;stop-opacity:0.3"></stop> </linearGradient> <polygon class="highlight" fill="url(#058c008a-c446-4988-ba2e-1907de1ae527)" points="92.92639,124.52956 108.19052,124.52957 126.98307,74.09344 111.71894,74.09344 " transform="translate(355.24578 -124.49338)" stroke-width="0" stroke-linejoin="miter" stroke-miterlimit="2" opacity="1"></polygon> <linearGradient id="8c44c35c-58a1-469b-8cb8-a5feaca9c07d" gradientUnits="userSpaceOnUse" x1="120.19638" y1="75.20424" x2="100.25746" y2="122.13738"> <stop offset="0" style="stop-color:#FFFFFF;stop-opacity:0.5"></stop> <stop offset="1" style="stop-color:#FFFFFF;stop-opacity:0"></stop> </linearGradient> <polygon class="highlight" fill="url(#8c44c35c-58a1-469b-8cb8-a5feaca9c07d)" points="92.92639,124.52956 108.19052,124.52957 126.98307,74.09344 111.71894,74.09344 " transform="translate(355.24578 -124.49338)" stroke-width="0" stroke-linejoin="miter" stroke-miterlimit="2" opacity="1"></polygon> <linearGradient id="0df0a0eb-f88b-47ca-bd9c-90c70223ec92" gradientUnits="userSpaceOnUse" x1="100.11426" y1="122.97942" x2="81.46196" y2="78.63622"> <stop offset="0" style="stop-color:#000000;stop-opacity:0.6"></stop> <stop offset="0.23895" style="stop-color:#0F0D0D;stop-opacity:0.43443"></stop> <stop offset="0.58436" style="stop-color:#1E1A1B;stop-opacity:0.1951"></stop> <stop offset="0.86592" style="stop-color:#231F20;stop-opacity:0"></stop> </linearGradient> <polygon class="highlight" fill="url(#0df0a0eb-f88b-47ca-bd9c-90c70223ec92)" points="88.28125,74.09338 73.01709,74.09338 92.03613,124.52954 92.92627,124.52954 100.07031,105.35663 " transform="translate(355.24578 -124.49338)" stroke-width="0" stroke-linejoin="miter" stroke-miterlimit="2" opacity="1"></polygon> </g>
        <g id="path272182" aria-label="I" transform="translate(0 306.46648) translate(489.8634537500001 54.536) scale(0.91) translate(-486.78875 50.4)"> <polygon class="c1" points="92.68457,74.11133 92.68457,88.72443 92.68457,91.32794 92.68457,124.52972 107.28516,124.52972 107.28516,91.32739 107.28516,88.72552 107.28516,74.11133 " transform="translate(394.1042 -124.49351)" stroke-width="0" stroke-linejoin="miter" stroke-miterlimit="2" fill="#ff0000" stroke="#ff0000"></polygon> <linearGradient id="252d6219-a000-4e6b-8b15-ef876a46be6d" gradientUnits="userSpaceOnUse" x1="99.9849" y1="88.29665" x2="99.9849" y2="123.32087"> <stop offset="0" style="stop-color:#000000;stop-opacity:0.4"></stop> <stop offset="0.27595" style="stop-color:#0F0D0D;stop-opacity:0.28962"></stop> <stop offset="0.67484" style="stop-color:#1E1A1B;stop-opacity:0.13006"></stop> <stop offset="1" style="stop-color:#231F20;stop-opacity:0"></stop> </linearGradient> <rect x="92.68465" y="88.72499" class="highlight" fill="url(#252d6219-a000-4e6b-8b15-ef876a46be6d)" width="14.6005" height="35.80472" transform="translate(394.1042 -124.49351)" stroke-width="0" stroke-linejoin="miter" stroke-miterlimit="2" opacity="1"></rect> <linearGradient id="94c7eaea-a2a7-4d36-af0a-60e80465dc29" gradientUnits="userSpaceOnUse" x1="96.08685" y1="85.06548" x2="104.20254" y2="77.45702"> <stop offset="0" style="stop-color:#000000;stop-opacity:0.4"></stop> <stop offset="0.27595" style="stop-color:#0F0D0D;stop-opacity:0.28962"></stop> <stop offset="0.67484" style="stop-color:#1E1A1B;stop-opacity:0.13006"></stop> <stop offset="1" style="stop-color:#231F20;stop-opacity:0"></stop> </linearGradient> <polygon class="highlight" fill="url(#94c7eaea-a2a7-4d36-af0a-60e80465dc29)" points="107.28516,74.11133 92.70239,74.11133 107.28516,88.69415 " transform="translate(394.1042 -124.49351)" stroke-width="0" stroke-linejoin="miter" stroke-miterlimit="2" opacity="1"></polygon> <linearGradient id="1ef31082-2ae5-4edf-b2a8-9f5baad30621" gradientUnits="userSpaceOnUse" x1="100.20536" y1="81.20361" x2="92.47973" y2="88.92923"> <stop offset="0" style="stop-color:#FFFFFF;stop-opacity:0.5"></stop> <stop offset="0.01383" style="stop-color:#FFFFFF;stop-opacity:0.49309"></stop> <stop offset="1" style="stop-color:#FFFFFF;stop-opacity:0"></stop> </linearGradient> <polygon class="highlight" fill="url(#1ef31082-2ae5-4edf-b2a8-9f5baad30621)" points="107.31545,88.72442 92.68455,74.09351 92.68456,88.72442 " transform="translate(394.1042 -124.49351)" stroke-width="0" stroke-linejoin="miter" stroke-miterlimit="2" opacity="1"></polygon> </g>
        <g id="path272184" aria-label="D" transform="translate(0 306.46648) translate(523.9075820500001 54.536) scale(0.91) translate(-509.19988 50.4)"> <path class="c1" d="M99.2851,74.09357v0.00183l-0.00018-0.00244l-9.27466,0.00018l-0.00067,0.00891v-0.00873L75.40912,87.3656 v37.16412h14.60046v-0.01465l9.27551-0.00018v0.00073c13.95361,0,25.30579-11.16272,25.30579-25.11627 C124.59088,85.44574,113.23871,74.09357,99.2851,74.09357z M99.2851,111.24316l-0.00006-0.00055l-9.27545,0.00018V87.36542 l9.27551-0.00018v0.00073c6.63525,0,12.03339,5.39813,12.03339,12.03339S105.92035,111.24316,99.2851,111.24316z" transform="translate(433.79078 -124.49296)" stroke-width="0" stroke-linejoin="miter" stroke-miterlimit="2" fill="#ff0000" stroke="#ff0000"></path> <linearGradient id="49da4b8a-c23a-42bb-9a68-27a28886cb70" gradientUnits="userSpaceOnUse" x1="90.00952" y1="99.30429" x2="124.59088" y2="99.30429"> <stop offset="0" style="stop-color:#000000;stop-opacity:0.4"></stop> <stop offset="0.27595" style="stop-color:#0F0D0D;stop-opacity:0.28962"></stop> <stop offset="0.67484" style="stop-color:#1E1A1B;stop-opacity:0.13006"></stop> <stop offset="1" style="stop-color:#231F20;stop-opacity:0"></stop> </linearGradient> <path class="highlight" fill="url(#49da4b8a-c23a-42bb-9a68-27a28886cb70)" d="M99.2851,74.09357v0.00183l-0.00018-0.00244l-9.27466,0.00018l0.00012,13.27228l9.27472-0.00018 v0.00073c6.63525,0,12.03339,5.39813,12.03339,12.03339s-5.39813,11.84381-12.03339,11.84381l-0.00006-0.00055l-9.27551,0.00018 l0.00006,13.27228l9.27551-0.00018v0.00073c13.95361,0,25.30579-11.16272,25.30579-25.11627 C124.59088,85.44574,113.23871,74.09357,99.2851,74.09357z" transform="translate(433.79078 -124.49296)" stroke-width="0" stroke-linejoin="miter" stroke-miterlimit="2" opacity="1"></path> <linearGradient id="58d7db45-7904-4eb8-b236-3a0577c68069" gradientUnits="userSpaceOnUse" x1="82.70934" y1="124.52972" x2="82.70934" y2="74.09335"> <stop offset="0" style="stop-color:#000000;stop-opacity:0.3"></stop> <stop offset="0.21414" style="stop-color:#0F0D0D;stop-opacity:0.21727"></stop> <stop offset="0.52404" style="stop-color:#1E1A1B;stop-opacity:0.09755"></stop> <stop offset="0.77654" style="stop-color:#231F20;stop-opacity:0"></stop> </linearGradient> <polygon class="highlight" fill="url(#58d7db45-7904-4eb8-b236-3a0577c68069)" points="75.4091,124.52972 90.00959,124.52972 90.00959,74.09335 75.4091,87.36559 " transform="translate(433.79078 -124.49296)" stroke-width="0" stroke-linejoin="miter" stroke-miterlimit="2" opacity="1"></polygon> <linearGradient id="3faf86b4-d201-448b-b20f-03de97c6e89f" gradientUnits="userSpaceOnUse" x1="82.70934" y1="124.52972" x2="82.70934" y2="74.09335"> <stop offset="0.18736" style="stop-color:#FFFFFF;stop-opacity:0"></stop> <stop offset="0.98876" style="stop-color:#FFFFFF;stop-opacity:0.49309"></stop> <stop offset="1" style="stop-color:#FFFFFF;stop-opacity:0.5"></stop> </linearGradient> <polygon class="highlight" fill="url(#3faf86b4-d201-448b-b20f-03de97c6e89f)" points="75.4091,124.52972 90.00959,124.52972 90.00959,74.09335 75.4091,87.36559 " transform="translate(433.79078 -124.49296)" stroke-width="0" stroke-linejoin="miter" stroke-miterlimit="2" opacity="1"></polygon> </g>
        <g id="path272186" aria-label="A" transform="translate(0 306.46648) translate(582.2790770500001 54.536) scale(0.91) translate(-558.34438 50.4)"> <polygon class="c1" points="126.98309,124.52972 107.96387,74.09351 107.07361,74.09351 92.69977,74.09351 91.80945,74.09351 73.01691,124.52972 88.28107,124.52972 99.92975,93.26648 111.71893,124.52972 " transform="translate(485.32747 -124.49351)" stroke-width="0" stroke-linejoin="miter" stroke-miterlimit="2" fill="#ff0000" stroke="#ff0000"></polygon> <linearGradient id="3ca5dbdb-ce15-4a76-9be9-f0543677e0a9" gradientUnits="userSpaceOnUse" x1="99.69487" y1="74.29882" x2="80.55542" y2="123.91029"> <stop offset="0.22" style="stop-color:#231F20;stop-opacity:0"></stop> <stop offset="0.47363" style="stop-color:#1E1A1B;stop-opacity:0.13006"></stop> <stop offset="0.78476" style="stop-color:#0F0D0D;stop-opacity:0.28962"></stop> <stop offset="1" style="stop-color:#000000;stop-opacity:0.4"></stop> </linearGradient> <polygon class="highlight" fill="url(#3ca5dbdb-ce15-4a76-9be9-f0543677e0a9)" points="107.07359,74.09354 91.80946,74.09354 73.01694,124.52972 88.28106,124.52972 " transform="translate(485.32747 -124.49351)" stroke-width="0" stroke-linejoin="miter" stroke-miterlimit="2" opacity="1"></polygon> <linearGradient id="026c3236-750b-4cad-bef3-5e231bf3ca4b" gradientUnits="userSpaceOnUse" x1="99.69487" y1="74.29882" x2="80.55542" y2="123.91029"> <stop offset="0" style="stop-color:#FFFFFF;stop-opacity:0.4"></stop> <stop offset="0.78" style="stop-color:#FFFFFF;stop-opacity:0"></stop> </linearGradient> <polygon class="highlight" fill="url(#026c3236-750b-4cad-bef3-5e231bf3ca4b)" points="107.07359,74.09354 91.80946,74.09354 73.01694,124.52972 88.28106,124.52972 " transform="translate(485.32747 -124.49351)" stroke-width="0" stroke-linejoin="miter" stroke-miterlimit="2" opacity="1"></polygon> <linearGradient id="90f7c3a8-b626-4c15-9219-d60fe64c981e" gradientUnits="userSpaceOnUse" x1="118.91997" y1="121.8189" x2="100.46027" y2="76.05422"> <stop offset="0" style="stop-color:#231F20;stop-opacity:0"></stop> <stop offset="0.32516" style="stop-color:#1E1A1B;stop-opacity:0.13006"></stop> <stop offset="0.72405" style="stop-color:#0F0D0D;stop-opacity:0.28962"></stop> <stop offset="1" style="stop-color:#000000;stop-opacity:0.4"></stop> </linearGradient> <polygon class="highlight" fill="url(#90f7c3a8-b626-4c15-9219-d60fe64c981e)" points="126.98309,124.52972 107.96387,74.09351 107.07361,74.09351 99.92975,93.26648 111.71893,124.52972 " transform="translate(485.32747 -124.49351)" stroke-width="0" stroke-linejoin="miter" stroke-miterlimit="2" opacity="1"></polygon> </g>
        <g id="path272188" aria-label="D" transform="translate(0 306.46648) translate(648.5917962500001 54.536) scale(0.91) translate(-616.2155 50.4)"> <path class="c1" d="M99.2851,74.09357v0.00183l-0.00018-0.00244l-9.27466,0.00018l-0.00067,0.00891v-0.00873L75.40912,87.3656 v37.16412h14.60046v-0.01465l9.27551-0.00018v0.00073c13.95361,0,25.30579-11.16272,25.30579-25.11627 C124.59088,85.44574,113.23871,74.09357,99.2851,74.09357z M99.2851,111.24316l-0.00006-0.00055l-9.27545,0.00018V87.36542 l9.27551-0.00018v0.00073c6.63525,0,12.03339,5.39813,12.03339,12.03339S105.92035,111.24316,99.2851,111.24316z" transform="translate(540.8064 -124.49296)" stroke-width="0" stroke-linejoin="miter" stroke-miterlimit="2" fill="#ff0000" stroke="#ff0000"></path> <linearGradient id="96c575c1-c332-47d6-bfb7-611131ba2109" gradientUnits="userSpaceOnUse" x1="90.00952" y1="99.30429" x2="124.59088" y2="99.30429"> <stop offset="0" style="stop-color:#000000;stop-opacity:0.4"></stop> <stop offset="0.27595" style="stop-color:#0F0D0D;stop-opacity:0.28962"></stop> <stop offset="0.67484" style="stop-color:#1E1A1B;stop-opacity:0.13006"></stop> <stop offset="1" style="stop-color:#231F20;stop-opacity:0"></stop> </linearGradient> <path class="highlight" fill="url(#96c575c1-c332-47d6-bfb7-611131ba2109)" d="M99.2851,74.09357v0.00183l-0.00018-0.00244l-9.27466,0.00018l0.00012,13.27228l9.27472-0.00018 v0.00073c6.63525,0,12.03339,5.39813,12.03339,12.03339s-5.39813,11.84381-12.03339,11.84381l-0.00006-0.00055l-9.27551,0.00018 l0.00006,13.27228l9.27551-0.00018v0.00073c13.95361,0,25.30579-11.16272,25.30579-25.11627 C124.59088,85.44574,113.23871,74.09357,99.2851,74.09357z" transform="translate(540.8064 -124.49296)" stroke-width="0" stroke-linejoin="miter" stroke-miterlimit="2" opacity="1"></path> <linearGradient id="f4471cd3-20b6-467b-ba48-6b8dfbe5f786" gradientUnits="userSpaceOnUse" x1="82.70934" y1="124.52972" x2="82.70934" y2="74.09335"> <stop offset="0" style="stop-color:#000000;stop-opacity:0.3"></stop> <stop offset="0.21414" style="stop-color:#0F0D0D;stop-opacity:0.21727"></stop> <stop offset="0.52404" style="stop-color:#1E1A1B;stop-opacity:0.09755"></stop> <stop offset="0.77654" style="stop-color:#231F20;stop-opacity:0"></stop> </linearGradient> <polygon class="highlight" fill="url(#f4471cd3-20b6-467b-ba48-6b8dfbe5f786)" points="75.4091,124.52972 90.00959,124.52972 90.00959,74.09335 75.4091,87.36559 " transform="translate(540.8064 -124.49296)" stroke-width="0" stroke-linejoin="miter" stroke-miterlimit="2" opacity="1"></polygon> <linearGradient id="f40be317-314a-4a3d-ae0a-4a6dcec84dd2" gradientUnits="userSpaceOnUse" x1="82.70934" y1="124.52972" x2="82.70934" y2="74.09335"> <stop offset="0.18736" style="stop-color:#FFFFFF;stop-opacity:0"></stop> <stop offset="0.98876" style="stop-color:#FFFFFF;stop-opacity:0.49309"></stop> <stop offset="1" style="stop-color:#FFFFFF;stop-opacity:0.5"></stop> </linearGradient> <polygon class="highlight" fill="url(#f40be317-314a-4a3d-ae0a-4a6dcec84dd2)" points="75.4091,124.52972 90.00959,124.52972 90.00959,74.09335 75.4091,87.36559 " transform="translate(540.8064 -124.49296)" stroke-width="0" stroke-linejoin="miter" stroke-miterlimit="2" opacity="1"></polygon> </g>
        <g id="path272190" aria-label="E" transform="translate(0 306.46648) translate(711.3009154500002 54.536) scale(0.91) translate(-670.12662 50.4)"> <polygon class="c1" points="120.52081,87.36542 120.52081,74.09314 94.07935,74.09332 94.07935,74.09363 79.47919,87.3656 79.47919,111.43201 94.07928,124.52936 94.07928,124.52972 94.07971,124.52972 94.07971,124.52972 94.07971,124.52972 120.52075,124.52954 120.52075,111.25726 94.07971,111.25745 94.07971,105.284 118.09473,105.28381 118.09473,92.01154 94.07971,92.01172 94.07971,87.36554 " transform="translate(590.64743 -124.49313)" stroke-width="0" stroke-linejoin="miter" stroke-miterlimit="2" fill="#ff0000" stroke="#ff0000"></polygon> <linearGradient id="94c63027-76af-4551-a832-c9cd45e9e518" gradientUnits="userSpaceOnUse" x1="94.07928" y1="99.31142" x2="120.52081" y2="99.31142"> <stop offset="0" style="stop-color:#000000;stop-opacity:0.4"></stop> <stop offset="0.27595" style="stop-color:#0F0D0D;stop-opacity:0.28962"></stop> <stop offset="0.67484" style="stop-color:#1E1A1B;stop-opacity:0.13006"></stop> <stop offset="1" style="stop-color:#231F20;stop-opacity:0"></stop> </linearGradient> <path class="highlight" fill="url(#94c63027-76af-4551-a832-c9cd45e9e518)" d="M94.07952,105.28402l0.00001-13.27227l24.01519-0.00018v13.27228L94.07952,105.28402z M120.52081,87.3654V74.09313l-26.44147,0.00018v13.27228L120.52081,87.3654z M120.52074,124.52954l0.00001-13.27228 l-26.44147,0.00018l-0.00001,13.27227L120.52074,124.52954z" transform="translate(590.64743 -124.49313)" stroke-width="0" stroke-linejoin="miter" stroke-miterlimit="2" opacity="1"></path> <linearGradient id="bd8cfddf-226b-4eee-965a-1c5ae8ea9413" gradientUnits="userSpaceOnUse" x1="86.77944" y1="124.52972" x2="86.77944" y2="74.09335"> <stop offset="0" style="stop-color:#000000;stop-opacity:0.3"></stop> <stop offset="0.21414" style="stop-color:#0F0D0D;stop-opacity:0.21727"></stop> <stop offset="0.52404" style="stop-color:#1E1A1B;stop-opacity:0.09755"></stop> <stop offset="0.77654" style="stop-color:#231F20;stop-opacity:0"></stop> </linearGradient> <polygon class="highlight" fill="url(#bd8cfddf-226b-4eee-965a-1c5ae8ea9413)" points="79.47919,111.43201 94.07969,124.52972 94.07969,74.09335 79.47919,87.3656 " transform="translate(590.64743 -124.49313)" stroke-width="0" stroke-linejoin="miter" stroke-miterlimit="2" opacity="1"></polygon> <linearGradient id="ca763d4a-f9b0-4c22-970d-d8c3d783350c" gradientUnits="userSpaceOnUse" x1="86.77944" y1="124.52972" x2="86.77944" y2="74.09335"> <stop offset="0.23363" style="stop-color:#FFFFFF;stop-opacity:0"></stop> <stop offset="0.9894" style="stop-color:#FFFFFF;stop-opacity:0.49309"></stop> <stop offset="1" style="stop-color:#FFFFFF;stop-opacity:0.5"></stop> </linearGradient> <polygon class="highlight" fill="url(#ca763d4a-f9b0-4c22-970d-d8c3d783350c)" points="79.47919,111.43201 94.07969,124.52972 94.07969,74.09335 79.47919,87.3656 " transform="translate(590.64743 -124.49313)" stroke-width="0" stroke-linejoin="miter" stroke-miterlimit="2" opacity="1"></polygon> </g>
        <g id="path272192" aria-label="S" transform="translate(0 306.46648) translate(766.8345754500002 54.536) scale(0.91) translate(-716.15262 50.4)"> <polygon class="c1" points="122.81104,105.27606 108.21094,92.00378 91.78931,92.00391 91.78931,87.38348 120.81104,87.38361 120.81104,74.11133 91.78931,74.11121 91.78931,74.11035 81.30688,83.63995 77.18896,87.38342 77.18896,87.38361 77.18896,92.00378 77.18896,92.00397 91.78931,105.27625 108.21069,105.27612 108.21069,111.25647 79.18896,111.25635 79.18896,124.52863 108.21069,124.52881 108.21069,124.52966 118.69312,115 122.81104,111.25653 122.81104,111.25635 122.81104,105.27625 122.80835,105.27606 " transform="translate(638.96378 -124.51035)" stroke-width="0" stroke-linejoin="miter" stroke-miterlimit="2" fill="#ff0000" stroke="#ff0000"></polygon> <linearGradient id="f2d06f73-4558-40e2-a2ff-881027e9a0d6" gradientUnits="userSpaceOnUse" x1="79.18899" y1="117.89261" x2="105.5673" y2="117.89261"> <stop offset="0" style="stop-color:#FFFFFF;stop-opacity:0.5"></stop> <stop offset="0.01383" style="stop-color:#FFFFFF;stop-opacity:0.49309"></stop> <stop offset="1" style="stop-color:#FFFFFF;stop-opacity:0"></stop> </linearGradient> <polygon class="highlight" fill="url(#f2d06f73-4558-40e2-a2ff-881027e9a0d6)" points="108.21104,124.52884 122.81116,111.25656 79.18899,111.25639 79.18899,124.52866 " transform="translate(638.96378 -124.51035)" stroke-width="0" stroke-linejoin="miter" stroke-miterlimit="2" opacity="1"></polygon> <linearGradient id="4dc686de-1843-4bdd-97bc-f22c256e5941" gradientUnits="userSpaceOnUse" x1="194.231" y1="104.61896" x2="220.60931" y2="104.61896" gradientTransform="matrix(-1 0 0 -1 315.04202 185.36638)"> <stop offset="0" style="stop-color:#FFFFFF;stop-opacity:0"></stop> <stop offset="0.98617" style="stop-color:#FFFFFF;stop-opacity:0.49309"></stop> <stop offset="1" style="stop-color:#FFFFFF;stop-opacity:0.5"></stop> </linearGradient> <polygon class="highlight" fill="url(#4dc686de-1843-4bdd-97bc-f22c256e5941)" points="91.78896,74.11119 77.18884,87.38347 120.81101,87.38364 120.811,74.11136 " transform="translate(638.96378 -124.51035)" stroke-width="0" stroke-linejoin="miter" stroke-miterlimit="2" opacity="1"></polygon> <linearGradient id="1c586ee2-b1e1-418c-9656-3191bf26fdbd" gradientUnits="userSpaceOnUse" x1="115.5109" y1="101.93358" x2="115.5109" y2="115.66119"> <stop offset="0" style="stop-color:#000000;stop-opacity:0.4"></stop> <stop offset="0.27595" style="stop-color:#0F0D0D;stop-opacity:0.28962"></stop> <stop offset="0.67484" style="stop-color:#1E1A1B;stop-opacity:0.13006"></stop> <stop offset="1" style="stop-color:#231F20;stop-opacity:0"></stop> </linearGradient> <polygon class="highlight" fill="url(#1c586ee2-b1e1-418c-9656-3191bf26fdbd)" points="122.81116,111.25639 108.21066,124.52969 108.21066,105.27625 122.81116,105.27625 " transform="translate(638.96378 -124.51035)" stroke-width="0" stroke-linejoin="miter" stroke-miterlimit="2" opacity="1"></polygon> <linearGradient id="d0fa499f-7066-471c-bcb8-7f54900e674b" gradientUnits="userSpaceOnUse" x1="84.96902" y1="79.05431" x2="84.45682" y2="97.49329"> <stop offset="0" style="stop-color:#000000;stop-opacity:0.4"></stop> <stop offset="0.27595" style="stop-color:#0F0D0D;stop-opacity:0.28962"></stop> <stop offset="0.67484" style="stop-color:#1E1A1B;stop-opacity:0.13006"></stop> <stop offset="1" style="stop-color:#231F20;stop-opacity:0"></stop> </linearGradient> <polygon class="highlight" fill="url(#d0fa499f-7066-471c-bcb8-7f54900e674b)" points="77.18896,87.38361 77.18896,92.00378 91.78931,105.27625 91.78931,87.38361 " transform="translate(638.96378 -124.51035)" stroke-width="0" stroke-linejoin="miter" stroke-miterlimit="2" opacity="1"></polygon> <linearGradient id="41055c12-e5c6-45f1-b57f-1edfd386857c" gradientUnits="userSpaceOnUse" x1="86.25433" y1="86.72636" x2="113.84203" y2="86.72636" gradientTransform="matrix(1 0 0 -1 -0.00018 185.36638)"> <stop offset="0" style="stop-color:#000000;stop-opacity:0.4"></stop> <stop offset="0.27595" style="stop-color:#0F0D0D;stop-opacity:0.28962"></stop> <stop offset="0.67484" style="stop-color:#1E1A1B;stop-opacity:0.13006"></stop> <stop offset="1" style="stop-color:#231F20;stop-opacity:0"></stop> </linearGradient> <polygon class="highlight" fill="url(#41055c12-e5c6-45f1-b57f-1edfd386857c)" points="108.21094,92.00378 91.78931,92.00391 91.78931,105.27625 122.81104,105.27606 " transform="translate(638.96378 -124.51035)" stroke-width="0" stroke-linejoin="miter" stroke-miterlimit="2" opacity="1"></polygon> <linearGradient id="07077ba3-d5fc-4559-bc7a-f036504dba70" gradientUnits="userSpaceOnUse" x1="86.25433" y1="86.72636" x2="113.84203" y2="86.72636" gradientTransform="matrix(1 0 0 -1 -0.00018 185.36638)"> <stop offset="0" style="stop-color:#FFFFFF;stop-opacity:0"></stop> <stop offset="0.98617" style="stop-color:#FFFFFF;stop-opacity:0.49309"></stop> <stop offset="1" style="stop-color:#FFFFFF;stop-opacity:0.5"></stop> </linearGradient> <polygon class="highlight" fill="url(#07077ba3-d5fc-4559-bc7a-f036504dba70)" points="108.21094,92.00378 91.78931,92.00391 91.78931,105.27625 122.81104,105.27606 " transform="translate(638.96378 -124.51035)" stroke-width="0" stroke-linejoin="miter" stroke-miterlimit="2" opacity="1"></polygon> <linearGradient id="c7612222-5312-4092-9556-728bea5726cc" gradientUnits="userSpaceOnUse" x1="119.57272" y1="117.89258" x2="89.39713" y2="117.89258"> <stop offset="0" style="stop-color:#000000;stop-opacity:0.4"></stop> <stop offset="0.27595" style="stop-color:#0F0D0D;stop-opacity:0.28962"></stop> <stop offset="0.67484" style="stop-color:#1E1A1B;stop-opacity:0.13006"></stop> <stop offset="1" style="stop-color:#231F20;stop-opacity:0"></stop> </linearGradient> <rect x="79.18896" y="111.25641" class="highlight" fill="url(#c7612222-5312-4092-9556-728bea5726cc)" width="29.02173" height="13.27231" transform="translate(638.96378 -124.51035)" stroke-width="0" stroke-linejoin="miter" stroke-miterlimit="2" opacity="1"></rect> </g>
                 </g>
      <image xlink:href="" id="icon" style="display: none;" x="0" y="0"></image>
    </g>
  </g>
</svg>