<svg width="200" height="20" viewBox="0 0 594 47" fill="none" xmlns="http://www.w3.org/2000/svg">
<path d="M49.8005 45.8994L32.493 0.00247192H31.6829H18.6027H17.7925L0.691284 45.8994H14.5817L25.182 17.4499L35.9101 45.8994H49.8005Z" fill="#FF0000"/>
<path d="M31.6829 0.00250244H17.7925L0.691315 45.8994H14.5817L31.6829 0.00250244Z" fill="url(#paint0_linear_110_66)"/>
<path d="M31.6829 0.00250244H17.7925L0.691315 45.8994H14.5817L31.6829 0.00250244Z" fill="url(#paint1_linear_110_66)"/>
<path d="M49.8005 45.8994L32.493 0.00247192H31.6829L25.182 17.4499L35.9101 45.8994H49.8005Z" fill="url(#paint2_linear_110_66)"/>
<path d="M102.096 12.0802V0.00247192L78.0338 0.00263855V0.00291626L64.7477 12.0804V33.9808L78.0337 45.8994V46.0591L102.095 46.0589V33.9811L78.0341 33.9813V12.0804L102.096 12.0802Z" fill="#FF0000"/>
<path d="M78.0338 12.0804V0.00263161L102.096 0.00247192V12.0802L78.0338 12.0804ZM102.095 46.0589L102.095 33.9811L78.0337 33.9813L78.0337 46.0591L102.095 46.0589Z" fill="url(#paint3_linear_110_66)"/>
<path d="M64.7477 33.9809L78.0341 45.8998V0.00268555L64.7477 12.0804V33.9809Z" fill="url(#paint4_linear_110_66)"/>
<path d="M64.7477 33.9809L78.0341 45.8998V0.00268555L64.7477 12.0804V33.9809Z" fill="url(#paint5_linear_110_66)"/>
<path d="M158.564 0.00269409L132.1 0.00286072V0.00247192L118.924 0.00263855V12.0804L132.1 12.0802V12.0806H132.101V45.9H145.388V12.0805L158.564 12.0805V0.00269409Z" fill="#FF0000"/>
<path d="M118.924 12.0804L118.924 0.00265518L132.1 0.00250244V12.0803L118.924 12.0804Z" fill="url(#paint6_linear_110_66)"/>
<path d="M132.101 45.9H145.388V12.0803L132.101 0.00289917V45.9Z" fill="url(#paint7_linear_110_66)"/>
<path d="M158.564 0.00268555L132.101 0.00285217L145.388 12.0805L158.564 12.0805V0.00268555Z" fill="url(#paint8_linear_110_66)"/>
<path d="M176.925 0.0186768V13.3166V15.6858V45.8994H190.211V15.6853V13.3176V0.0186768H176.925Z" fill="#FF0000"/>
<path d="M190.211 13.3171H176.925V45.8994H190.211V13.3171Z" fill="url(#paint9_linear_110_66)"/>
<path d="M190.211 0.0186768H176.941L190.211 13.289V0.0186768Z" fill="url(#paint10_linear_110_66)"/>
<path d="M190.239 13.3166L176.925 0.00247192L176.925 13.3166H190.239Z" fill="url(#paint11_linear_110_66)"/>
<path d="M243.173 0.00252052L232.573 28.452L221.845 0.00247192H207.955L225.262 45.8994H226.072H239.153H239.963L257.064 0.00252052H243.173Z" fill="#FF0000"/>
<path d="M226.072 45.8994L239.963 45.8994L257.064 0.00250244H243.174L226.072 45.8994Z" fill="url(#paint12_linear_110_66)"/>
<path d="M226.072 45.8994L239.963 45.8994L257.064 0.00250244H243.174L226.072 45.8994Z" fill="url(#paint13_linear_110_66)"/>
<path d="M221.845 0.00247192H207.955L225.262 45.8994H226.072L232.573 28.452L221.845 0.00247192Z" fill="url(#paint14_linear_110_66)"/>
<path d="M274.863 0.0186768V13.3166V15.6858V45.8994H288.15V15.6853V13.3176V0.0186768H274.863Z" fill="#FF0000"/>
<path d="M288.15 13.3171H274.864V45.8994H288.15V13.3171Z" fill="url(#paint15_linear_110_66)"/>
<path d="M288.15 0.0186768H274.88L288.15 13.289V0.0186768Z" fill="url(#paint16_linear_110_66)"/>
<path d="M288.178 13.3166L274.863 0.00247192L274.863 13.3166H288.178Z" fill="url(#paint17_linear_110_66)"/>
<path d="M330.635 0.00302734V0.0046936L330.635 0.00247192L322.195 0.00263855L322.194 0.0107477V0.00280518L308.908 12.0806V45.8999H322.194V45.8866L330.635 45.8864V45.8871C343.333 45.8871 353.663 35.729 353.663 23.0313C353.663 10.3335 343.333 0.00302734 330.635 0.00302734ZM330.635 33.8092L330.635 33.8087L322.194 33.8088V12.0804L330.635 12.0803V12.0809C336.673 12.0809 341.585 16.9932 341.585 23.0313C341.585 29.0694 336.673 33.8092 330.635 33.8092Z" fill="#FF0000"/>
<path d="M330.635 0.00302734V0.0046936L330.635 0.00247192L322.195 0.00263855L322.195 12.0804L330.635 12.0803V12.0809C336.673 12.0809 341.585 16.9932 341.585 23.0313C341.585 29.0694 336.673 33.8092 330.635 33.8092L330.635 33.8087L322.194 33.8088L322.194 45.8866L330.635 45.8864V45.8871C343.333 45.8871 353.663 35.729 353.663 23.0313C353.663 10.3335 343.333 0.00302734 330.635 0.00302734Z" fill="url(#paint18_linear_110_66)"/>
<path d="M308.908 45.8999H322.194V0.00283813L308.908 12.0806V45.8999Z" fill="url(#paint19_linear_110_66)"/>
<path d="M308.908 45.8999H322.194V0.00283813L308.908 12.0806V45.8999Z" fill="url(#paint20_linear_110_66)"/>
<path d="M416.388 45.8994L399.081 0.00247192H398.271H385.19H384.38L367.279 45.8994H381.169L391.77 17.4499L402.498 45.8994H416.388Z" fill="#FF0000"/>
<path d="M398.271 0.00250244H384.38L367.279 45.8994H381.169L398.271 0.00250244Z" fill="url(#paint21_linear_110_66)"/>
<path d="M398.271 0.00250244H384.38L367.279 45.8994H381.169L398.271 0.00250244Z" fill="url(#paint22_linear_110_66)"/>
<path d="M416.388 45.8994L399.081 0.00247192H398.271L391.77 17.4499L402.498 45.8994H416.388Z" fill="url(#paint23_linear_110_66)"/>
<path d="M455.319 0.00302734V0.0046936L455.319 0.00247192L446.879 0.00263855L446.878 0.0107477V0.00280518L433.592 12.0806V45.8999H446.878V45.8866L455.319 45.8864V45.8871C468.017 45.8871 478.347 35.729 478.347 23.0313C478.347 10.3335 468.017 0.00302734 455.319 0.00302734ZM455.319 33.8092L455.319 33.8087L446.878 33.8088V12.0804L455.319 12.0803V12.0809C461.357 12.0809 466.269 16.9932 466.269 23.0313C466.269 29.0694 461.357 33.8092 455.319 33.8092Z" fill="#FF0000"/>
<path d="M455.319 0.00302734V0.0046936L455.319 0.00247192L446.879 0.00263855L446.879 12.0804L455.319 12.0803V12.0809C461.357 12.0809 466.269 16.9932 466.269 23.0313C466.269 29.0694 461.357 33.8092 455.319 33.8092L455.319 33.8087L446.878 33.8088L446.878 45.8866L455.319 45.8864V45.8871C468.017 45.8871 478.347 35.729 478.347 23.0313C478.347 10.3335 468.017 0.00302734 455.319 0.00302734Z" fill="url(#paint24_linear_110_66)"/>
<path d="M433.592 45.8999H446.878V0.00283813L433.592 12.0806V45.8999Z" fill="url(#paint25_linear_110_66)"/>
<path d="M433.592 45.8999H446.878V0.00283813L433.592 12.0806V45.8999Z" fill="url(#paint26_linear_110_66)"/>
<path d="M533.649 12.0802V0.00247192L509.587 0.00263855V0.00291626L496.301 12.0804V33.9808L509.587 45.8994V45.8998H509.587L533.649 45.8996V33.8218L509.587 33.822V28.3862L531.441 28.386V16.3082L509.587 16.3084V12.0804L533.649 12.0802Z" fill="#FF0000"/>
<path d="M509.587 28.3862L509.587 16.3084L531.441 16.3083V28.386L509.587 28.3862ZM533.649 12.0802V0.00247192L509.587 0.00263161V12.0804L533.649 12.0802ZM533.649 45.8996L533.649 33.8218L509.587 33.822L509.587 45.8998L533.649 45.8996Z" fill="url(#paint27_linear_110_66)"/>
<path d="M496.301 33.9809L509.587 45.8998V0.00268555L496.301 12.0804V33.9809Z" fill="url(#paint28_linear_110_66)"/>
<path d="M496.301 33.9809L509.587 45.8998V0.00268555L496.301 12.0804V33.9809Z" fill="url(#paint29_linear_110_66)"/>
<path d="M593.351 28.3633L580.065 16.2855L565.121 16.2856V12.081L591.531 12.0811V0.0033606L565.121 0.00325645V0.00247192L555.582 8.67441L551.835 12.081V12.0811V16.2855V16.2857L565.121 28.3634L580.064 28.3633V33.8054L553.655 33.8053V45.8831L580.064 45.8833V45.884L589.603 37.2121L593.351 33.8055V33.8053V28.3634L593.348 28.3633H593.351Z" fill="#FF0000"/>
<path d="M580.065 45.8833L593.351 33.8055L553.655 33.8054V45.8831L580.065 45.8833Z" fill="url(#paint30_linear_110_66)"/>
<path d="M565.121 0.00323486L551.835 12.081L591.531 12.0812L591.531 0.0033876L565.121 0.00323486Z" fill="url(#paint31_linear_110_66)"/>
<path d="M593.351 33.8054L580.064 45.8841V28.3634H593.351V33.8054Z" fill="url(#paint32_linear_110_66)"/>
<path d="M551.835 12.0811V16.2855L565.121 28.3634V12.0811H551.835Z" fill="url(#paint33_linear_110_66)"/>
<path d="M580.065 16.2855L565.121 16.2856V28.3634L593.351 28.3633L580.065 16.2855Z" fill="url(#paint34_linear_110_66)"/>
<path d="M580.065 16.2855L565.121 16.2856V28.3634L593.351 28.3633L580.065 16.2855Z" fill="url(#paint35_linear_110_66)"/>
<path d="M580.064 33.8054H553.655V45.8832H580.064V33.8054Z" fill="url(#paint36_linear_110_66)"/>
<defs>
<linearGradient id="paint0_linear_110_66" x1="24.9682" y1="0.189307" x2="7.55134" y2="45.3357" gradientUnits="userSpaceOnUse">
<stop offset="0.22" stop-color="#231F20" stop-opacity="0"/>
<stop offset="0.47363" stop-color="#1E1A1B" stop-opacity="0.13006"/>
<stop offset="0.78476" stop-color="#0F0D0D" stop-opacity="0.28962"/>
<stop offset="1" stop-opacity="0.4"/>
</linearGradient>
<linearGradient id="paint1_linear_110_66" x1="24.9682" y1="0.189307" x2="7.55134" y2="45.3357" gradientUnits="userSpaceOnUse">
<stop stop-color="white" stop-opacity="0.4"/>
<stop offset="0.78" stop-color="white" stop-opacity="0"/>
</linearGradient>
<linearGradient id="paint2_linear_110_66" x1="42.4631" y1="43.4326" x2="25.6647" y2="1.78671" gradientUnits="userSpaceOnUse">
<stop stop-color="#231F20" stop-opacity="0"/>
<stop offset="0.32516" stop-color="#1E1A1B" stop-opacity="0.13006"/>
<stop offset="0.72405" stop-color="#0F0D0D" stop-opacity="0.28962"/>
<stop offset="1" stop-opacity="0.4"/>
</linearGradient>
<linearGradient id="paint3_linear_110_66" x1="78.0337" y1="23.0308" x2="102.096" y2="23.0308" gradientUnits="userSpaceOnUse">
<stop stop-opacity="0.4"/>
<stop offset="0.27595" stop-color="#0F0D0D" stop-opacity="0.28962"/>
<stop offset="0.67484" stop-color="#1E1A1B" stop-opacity="0.13006"/>
<stop offset="1" stop-color="#231F20" stop-opacity="0"/>
</linearGradient>
<linearGradient id="paint4_linear_110_66" x1="71.3909" y1="4.76252" x2="71.3909" y2="41.8521" gradientUnits="userSpaceOnUse">
<stop offset="0.22346" stop-color="#231F20" stop-opacity="0"/>
<stop offset="0.47596" stop-color="#1E1A1B" stop-opacity="0.09755"/>
<stop offset="0.78586" stop-color="#0F0D0D" stop-opacity="0.21727"/>
<stop offset="1" stop-opacity="0.3"/>
</linearGradient>
<linearGradient id="paint5_linear_110_66" x1="71.3909" y1="4.76252" x2="71.3909" y2="41.8521" gradientUnits="userSpaceOnUse">
<stop stop-color="white" stop-opacity="0.5"/>
<stop offset="0.01202" stop-color="white" stop-opacity="0.49309"/>
<stop offset="0.86929" stop-color="white" stop-opacity="0"/>
</linearGradient>
<linearGradient id="paint6_linear_110_66" x1="137.613" y1="6.04146" x2="119.659" y2="6.04146" gradientUnits="userSpaceOnUse">
<stop offset="0.25563" stop-opacity="0.4"/>
<stop offset="0.46104" stop-color="#0F0D0D" stop-opacity="0.28962"/>
<stop offset="0.75796" stop-color="#1E1A1B" stop-opacity="0.13006"/>
<stop offset="1" stop-color="#231F20" stop-opacity="0"/>
</linearGradient>
<linearGradient id="paint7_linear_110_66" x1="138.745" y1="2.0674" x2="138.745" y2="45.9217" gradientUnits="userSpaceOnUse">
<stop stop-color="white" stop-opacity="0.5"/>
<stop offset="0.01383" stop-color="white" stop-opacity="0.49309"/>
<stop offset="1" stop-color="white" stop-opacity="0"/>
</linearGradient>
<linearGradient id="paint8_linear_110_66" x1="137.127" y1="13.1923" x2="146.278" y2="5.21808" gradientUnits="userSpaceOnUse">
<stop offset="0.25563" stop-opacity="0.4"/>
<stop offset="0.46104" stop-color="#0F0D0D" stop-opacity="0.28962"/>
<stop offset="0.75796" stop-color="#1E1A1B" stop-opacity="0.13006"/>
<stop offset="1" stop-color="#231F20" stop-opacity="0"/>
</linearGradient>
<linearGradient id="paint9_linear_110_66" x1="183.568" y1="12.9273" x2="183.568" y2="44.7994" gradientUnits="userSpaceOnUse">
<stop stop-opacity="0.4"/>
<stop offset="0.27595" stop-color="#0F0D0D" stop-opacity="0.28962"/>
<stop offset="0.67484" stop-color="#1E1A1B" stop-opacity="0.13006"/>
<stop offset="1" stop-color="#231F20" stop-opacity="0"/>
</linearGradient>
<linearGradient id="paint10_linear_110_66" x1="180.021" y1="9.98696" x2="187.406" y2="3.06326" gradientUnits="userSpaceOnUse">
<stop stop-opacity="0.4"/>
<stop offset="0.27595" stop-color="#0F0D0D" stop-opacity="0.28962"/>
<stop offset="0.67484" stop-color="#1E1A1B" stop-opacity="0.13006"/>
<stop offset="1" stop-color="#231F20" stop-opacity="0"/>
</linearGradient>
<linearGradient id="paint11_linear_110_66" x1="183.769" y1="6.47266" x2="176.738" y2="13.503" gradientUnits="userSpaceOnUse">
<stop stop-color="white" stop-opacity="0.5"/>
<stop offset="0.01383" stop-color="white" stop-opacity="0.49309"/>
<stop offset="1" stop-color="white" stop-opacity="0"/>
</linearGradient>
<linearGradient id="paint12_linear_110_66" x1="250.888" y1="1.01333" x2="232.744" y2="43.7225" gradientUnits="userSpaceOnUse">
<stop offset="0.30163" stop-color="#231F20" stop-opacity="0"/>
<stop offset="0.53054" stop-color="#1E1B1C" stop-opacity="0.09833"/>
<stop offset="0.78932" stop-color="#110F0F" stop-opacity="0.2095"/>
<stop offset="1" stop-opacity="0.3"/>
</linearGradient>
<linearGradient id="paint13_linear_110_66" x1="250.888" y1="1.01333" x2="232.744" y2="43.7225" gradientUnits="userSpaceOnUse">
<stop stop-color="white" stop-opacity="0.5"/>
<stop offset="1" stop-color="white" stop-opacity="0"/>
</linearGradient>
<linearGradient id="paint14_linear_110_66" x1="232.613" y1="44.4888" x2="215.64" y2="4.13646" gradientUnits="userSpaceOnUse">
<stop stop-opacity="0.6"/>
<stop offset="0.23895" stop-color="#0F0D0D" stop-opacity="0.43443"/>
<stop offset="0.58436" stop-color="#1E1A1B" stop-opacity="0.1951"/>
<stop offset="0.86592" stop-color="#231F20" stop-opacity="0"/>
</linearGradient>
<linearGradient id="paint15_linear_110_66" x1="281.507" y1="12.9273" x2="281.507" y2="44.7994" gradientUnits="userSpaceOnUse">
<stop stop-opacity="0.4"/>
<stop offset="0.27595" stop-color="#0F0D0D" stop-opacity="0.28962"/>
<stop offset="0.67484" stop-color="#1E1A1B" stop-opacity="0.13006"/>
<stop offset="1" stop-color="#231F20" stop-opacity="0"/>
</linearGradient>
<linearGradient id="paint16_linear_110_66" x1="277.96" y1="9.98696" x2="285.345" y2="3.06326" gradientUnits="userSpaceOnUse">
<stop stop-opacity="0.4"/>
<stop offset="0.27595" stop-color="#0F0D0D" stop-opacity="0.28962"/>
<stop offset="0.67484" stop-color="#1E1A1B" stop-opacity="0.13006"/>
<stop offset="1" stop-color="#231F20" stop-opacity="0"/>
</linearGradient>
<linearGradient id="paint17_linear_110_66" x1="281.707" y1="6.47266" x2="274.677" y2="13.503" gradientUnits="userSpaceOnUse">
<stop stop-color="white" stop-opacity="0.5"/>
<stop offset="0.01383" stop-color="white" stop-opacity="0.49309"/>
<stop offset="1" stop-color="white" stop-opacity="0"/>
</linearGradient>
<linearGradient id="paint18_linear_110_66" x1="322.194" y1="22.9448" x2="353.663" y2="22.9448" gradientUnits="userSpaceOnUse">
<stop stop-opacity="0.4"/>
<stop offset="0.27595" stop-color="#0F0D0D" stop-opacity="0.28962"/>
<stop offset="0.67484" stop-color="#1E1A1B" stop-opacity="0.13006"/>
<stop offset="1" stop-color="#231F20" stop-opacity="0"/>
</linearGradient>
<linearGradient id="paint19_linear_110_66" x1="315.551" y1="45.8999" x2="315.551" y2="0.00283813" gradientUnits="userSpaceOnUse">
<stop stop-opacity="0.3"/>
<stop offset="0.21414" stop-color="#0F0D0D" stop-opacity="0.21727"/>
<stop offset="0.52404" stop-color="#1E1A1B" stop-opacity="0.09755"/>
<stop offset="0.77654" stop-color="#231F20" stop-opacity="0"/>
</linearGradient>
<linearGradient id="paint20_linear_110_66" x1="315.551" y1="45.8999" x2="315.551" y2="0.00283813" gradientUnits="userSpaceOnUse">
<stop offset="0.18736" stop-color="white" stop-opacity="0"/>
<stop offset="0.98876" stop-color="white" stop-opacity="0.49309"/>
<stop offset="1" stop-color="white" stop-opacity="0.5"/>
</linearGradient>
<linearGradient id="paint21_linear_110_66" x1="391.556" y1="0.189307" x2="374.139" y2="45.3357" gradientUnits="userSpaceOnUse">
<stop offset="0.22" stop-color="#231F20" stop-opacity="0"/>
<stop offset="0.47363" stop-color="#1E1A1B" stop-opacity="0.13006"/>
<stop offset="0.78476" stop-color="#0F0D0D" stop-opacity="0.28962"/>
<stop offset="1" stop-opacity="0.4"/>
</linearGradient>
<linearGradient id="paint22_linear_110_66" x1="391.556" y1="0.189307" x2="374.139" y2="45.3357" gradientUnits="userSpaceOnUse">
<stop stop-color="white" stop-opacity="0.4"/>
<stop offset="0.78" stop-color="white" stop-opacity="0"/>
</linearGradient>
<linearGradient id="paint23_linear_110_66" x1="409.051" y1="43.4326" x2="392.253" y2="1.78671" gradientUnits="userSpaceOnUse">
<stop stop-color="#231F20" stop-opacity="0"/>
<stop offset="0.32516" stop-color="#1E1A1B" stop-opacity="0.13006"/>
<stop offset="0.72405" stop-color="#0F0D0D" stop-opacity="0.28962"/>
<stop offset="1" stop-opacity="0.4"/>
</linearGradient>
<linearGradient id="paint24_linear_110_66" x1="446.878" y1="22.9448" x2="478.347" y2="22.9448" gradientUnits="userSpaceOnUse">
<stop stop-opacity="0.4"/>
<stop offset="0.27595" stop-color="#0F0D0D" stop-opacity="0.28962"/>
<stop offset="0.67484" stop-color="#1E1A1B" stop-opacity="0.13006"/>
<stop offset="1" stop-color="#231F20" stop-opacity="0"/>
</linearGradient>
<linearGradient id="paint25_linear_110_66" x1="440.235" y1="45.8999" x2="440.235" y2="0.00283813" gradientUnits="userSpaceOnUse">
<stop stop-opacity="0.3"/>
<stop offset="0.21414" stop-color="#0F0D0D" stop-opacity="0.21727"/>
<stop offset="0.52404" stop-color="#1E1A1B" stop-opacity="0.09755"/>
<stop offset="0.77654" stop-color="#231F20" stop-opacity="0"/>
</linearGradient>
<linearGradient id="paint26_linear_110_66" x1="440.235" y1="45.8999" x2="440.235" y2="0.00283813" gradientUnits="userSpaceOnUse">
<stop offset="0.18736" stop-color="white" stop-opacity="0"/>
<stop offset="0.98876" stop-color="white" stop-opacity="0.49309"/>
<stop offset="1" stop-color="white" stop-opacity="0.5"/>
</linearGradient>
<linearGradient id="paint27_linear_110_66" x1="509.587" y1="22.9511" x2="533.649" y2="22.9511" gradientUnits="userSpaceOnUse">
<stop stop-opacity="0.4"/>
<stop offset="0.27595" stop-color="#0F0D0D" stop-opacity="0.28962"/>
<stop offset="0.67484" stop-color="#1E1A1B" stop-opacity="0.13006"/>
<stop offset="1" stop-color="#231F20" stop-opacity="0"/>
</linearGradient>
<linearGradient id="paint28_linear_110_66" x1="502.944" y1="45.8998" x2="502.944" y2="0.00268555" gradientUnits="userSpaceOnUse">
<stop stop-opacity="0.3"/>
<stop offset="0.21414" stop-color="#0F0D0D" stop-opacity="0.21727"/>
<stop offset="0.52404" stop-color="#1E1A1B" stop-opacity="0.09755"/>
<stop offset="0.77654" stop-color="#231F20" stop-opacity="0"/>
</linearGradient>
<linearGradient id="paint29_linear_110_66" x1="502.944" y1="45.8998" x2="502.944" y2="0.00268555" gradientUnits="userSpaceOnUse">
<stop offset="0.23363" stop-color="white" stop-opacity="0"/>
<stop offset="0.9894" stop-color="white" stop-opacity="0.49309"/>
<stop offset="1" stop-color="white" stop-opacity="0.5"/>
</linearGradient>
<linearGradient id="paint30_linear_110_66" x1="553.655" y1="39.8443" x2="577.659" y2="39.8443" gradientUnits="userSpaceOnUse">
<stop stop-color="white" stop-opacity="0.5"/>
<stop offset="0.01383" stop-color="white" stop-opacity="0.49309"/>
<stop offset="1" stop-color="white" stop-opacity="0"/>
</linearGradient>
<linearGradient id="paint31_linear_110_66" x1="591.531" y1="6.0422" x2="567.527" y2="6.0422" gradientUnits="userSpaceOnUse">
<stop stop-color="white" stop-opacity="0"/>
<stop offset="0.98617" stop-color="white" stop-opacity="0.49309"/>
<stop offset="1" stop-color="white" stop-opacity="0.5"/>
</linearGradient>
<linearGradient id="paint32_linear_110_66" x1="586.708" y1="25.3216" x2="586.708" y2="37.8137" gradientUnits="userSpaceOnUse">
<stop stop-opacity="0.4"/>
<stop offset="0.27595" stop-color="#0F0D0D" stop-opacity="0.28962"/>
<stop offset="0.67484" stop-color="#1E1A1B" stop-opacity="0.13006"/>
<stop offset="1" stop-color="#231F20" stop-opacity="0"/>
</linearGradient>
<linearGradient id="paint33_linear_110_66" x1="558.915" y1="4.50148" x2="558.448" y2="21.281" gradientUnits="userSpaceOnUse">
<stop stop-opacity="0.4"/>
<stop offset="0.27595" stop-color="#0F0D0D" stop-opacity="0.28962"/>
<stop offset="0.67484" stop-color="#1E1A1B" stop-opacity="0.13006"/>
<stop offset="1" stop-color="#231F20" stop-opacity="0"/>
</linearGradient>
<linearGradient id="paint34_linear_110_66" x1="560.084" y1="22.3245" x2="585.189" y2="22.3245" gradientUnits="userSpaceOnUse">
<stop stop-opacity="0.4"/>
<stop offset="0.27595" stop-color="#0F0D0D" stop-opacity="0.28962"/>
<stop offset="0.67484" stop-color="#1E1A1B" stop-opacity="0.13006"/>
<stop offset="1" stop-color="#231F20" stop-opacity="0"/>
</linearGradient>
<linearGradient id="paint35_linear_110_66" x1="560.084" y1="22.3245" x2="585.189" y2="22.3245" gradientUnits="userSpaceOnUse">
<stop stop-color="white" stop-opacity="0"/>
<stop offset="0.98617" stop-color="white" stop-opacity="0.49309"/>
<stop offset="1" stop-color="white" stop-opacity="0.5"/>
</linearGradient>
<linearGradient id="paint36_linear_110_66" x1="590.404" y1="39.8443" x2="562.944" y2="39.8443" gradientUnits="userSpaceOnUse">
<stop stop-opacity="0.4"/>
<stop offset="0.27595" stop-color="#0F0D0D" stop-opacity="0.28962"/>
<stop offset="0.67484" stop-color="#1E1A1B" stop-opacity="0.13006"/>
<stop offset="1" stop-color="#231F20" stop-opacity="0"/>
</linearGradient>
</defs>
</svg>
